<svg height="1662" width="720" xmlns="http://www.w3.org/2000/svg">
<rect height="1662" fill="#555" width="720"></rect>
<text fill="#7f7" font-family="Courier New" font-size="12" xml:space="preserve">
<tspan x="10" y="26">4 megabytes installed</tspan>
<tspan x="10" y="42"></tspan>
<tspan x="10" y="58">node_modules</tspan>
<tspan x="10" y="74">└─┬ vinyl-fs@2.4.4 </tspan>
<tspan x="10" y="90">  ├─┬ duplexify@3.5.0 </tspan>
<tspan x="10" y="106">  │ ├─┬ end-of-stream@1.0.0 </tspan>
<tspan x="10" y="122">  │ │ └─┬ once@1.3.3 </tspan>
<tspan x="10" y="138">  │ │   └── wrappy@1.0.2 </tspan>
<tspan x="10" y="154">  │ ├── inherits@2.0.3 </tspan>
<tspan x="10" y="170">  │ └── stream-shift@1.0.0 </tspan>
<tspan x="10" y="186">  ├─┬ glob-stream@5.3.5 </tspan>
<tspan x="10" y="202">  │ ├── extend@3.0.0 </tspan>
<tspan x="10" y="218">  │ ├─┬ glob@5.0.15 </tspan>
<tspan x="10" y="234">  │ │ ├── inflight@1.0.6 </tspan>
<tspan x="10" y="250">  │ │ ├─┬ minimatch@3.0.3 </tspan>
<tspan x="10" y="266">  │ │ │ └─┬ brace-expansion@1.1.7 </tspan>
<tspan x="10" y="282">  │ │ │   ├── balanced-match@0.4.2 </tspan>
<tspan x="10" y="298">  │ │ │   └── concat-map@0.0.1 </tspan>
<tspan x="10" y="314">  │ │ └── path-is-absolute@1.0.1 </tspan>
<tspan x="10" y="330">  │ ├─┬ glob-parent@3.1.0 </tspan>
<tspan x="10" y="346">  │ │ ├─┬ is-glob@3.1.0 </tspan>
<tspan x="10" y="362">  │ │ │ └── is-extglob@2.1.1 </tspan>
<tspan x="10" y="378">  │ │ └── path-dirname@1.0.2 </tspan>
<tspan x="10" y="394">  │ ├─┬ micromatch@2.3.11 </tspan>
<tspan x="10" y="410">  │ │ ├─┬ arr-diff@2.0.0 </tspan>
<tspan x="10" y="426">  │ │ │ └── arr-flatten@1.0.3 </tspan>
<tspan x="10" y="442">  │ │ ├── array-unique@0.2.1 </tspan>
<tspan x="10" y="458">  │ │ ├─┬ braces@1.8.5 </tspan>
<tspan x="10" y="474">  │ │ │ ├─┬ expand-range@1.8.2 </tspan>
<tspan x="10" y="490">  │ │ │ │ └─┬ fill-range@2.2.3 </tspan>
<tspan x="10" y="506">  │ │ │ │   ├── is-number@2.1.0 </tspan>
<tspan x="10" y="522">  │ │ │ │   ├── isobject@2.1.0 </tspan>
<tspan x="10" y="538">  │ │ │ │   ├── randomatic@1.1.6 </tspan>
<tspan x="10" y="554">  │ │ │ │   └── repeat-string@1.6.1 </tspan>
<tspan x="10" y="570">  │ │ │ ├── preserve@0.2.0 </tspan>
<tspan x="10" y="586">  │ │ │ └── repeat-element@1.1.2 </tspan>
<tspan x="10" y="602">  │ │ ├─┬ expand-brackets@0.1.5 </tspan>
<tspan x="10" y="618">  │ │ │ └── is-posix-bracket@0.1.1 </tspan>
<tspan x="10" y="634">  │ │ ├─┬ extglob@0.3.2 </tspan>
<tspan x="10" y="650">  │ │ │ └── is-extglob@1.0.0 </tspan>
<tspan x="10" y="666">  │ │ ├── filename-regex@2.0.0 </tspan>
<tspan x="10" y="682">  │ │ ├── is-extglob@1.0.0 </tspan>
<tspan x="10" y="698">  │ │ ├── is-glob@2.0.1 </tspan>
<tspan x="10" y="714">  │ │ ├─┬ kind-of@3.1.0 </tspan>
<tspan x="10" y="730">  │ │ │ └── is-buffer@1.1.5 </tspan>
<tspan x="10" y="746">  │ │ ├─┬ normalize-path@2.1.1 </tspan>
<tspan x="10" y="762">  │ │ │ └── remove-trailing-separator@1.0.1 </tspan>
<tspan x="10" y="778">  │ │ ├─┬ object.omit@2.0.1 </tspan>
<tspan x="10" y="794">  │ │ │ ├─┬ for-own@0.1.5 </tspan>
<tspan x="10" y="810">  │ │ │ │ └── for-in@1.0.2 </tspan>
<tspan x="10" y="826">  │ │ │ └── is-extendable@0.1.1 </tspan>
<tspan x="10" y="842">  │ │ ├─┬ parse-glob@3.0.4 </tspan>
<tspan x="10" y="858">  │ │ │ ├─┬ glob-base@0.3.0 </tspan>
<tspan x="10" y="874">  │ │ │ │ ├── glob-parent@2.0.0 </tspan>
<tspan x="10" y="890">  │ │ │ │ └─┬ is-glob@2.0.1 </tspan>
<tspan x="10" y="906">  │ │ │ │   └── is-extglob@1.0.0 </tspan>
<tspan x="10" y="922">  │ │ │ ├── is-dotfile@1.0.2 </tspan>
<tspan x="10" y="938">  │ │ │ ├── is-extglob@1.0.0 </tspan>
<tspan x="10" y="954">  │ │ │ └── is-glob@2.0.1 </tspan>
<tspan x="10" y="970">  │ │ └─┬ regex-cache@0.4.3 </tspan>
<tspan x="10" y="986">  │ │   ├── is-equal-shallow@0.1.3 </tspan>
<tspan x="10" y="1002">  │ │   └── is-primitive@2.0.0 </tspan>
<tspan x="10" y="1018">  │ ├─┬ ordered-read-streams@0.3.0 </tspan>
<tspan x="10" y="1034">  │ │ └── is-stream@1.1.0 </tspan>
<tspan x="10" y="1050">  │ ├─┬ through2@0.6.5 </tspan>
<tspan x="10" y="1066">  │ │ └─┬ readable-stream@1.0.34 </tspan>
<tspan x="10" y="1082">  │ │   ├── isarray@0.0.1 </tspan>
<tspan x="10" y="1098">  │ │   └── string_decoder@0.10.31 </tspan>
<tspan x="10" y="1114">  │ ├─┬ to-absolute-glob@0.1.1 </tspan>
<tspan x="10" y="1130">  │ │ └── extend-shallow@2.0.1 </tspan>
<tspan x="10" y="1146">  │ └─┬ unique-stream@2.2.1 </tspan>
<tspan x="10" y="1162">  │   └─┬ json-stable-stringify@1.0.1 </tspan>
<tspan x="10" y="1178">  │     └── jsonify@0.0.0 </tspan>
<tspan x="10" y="1194">  ├── graceful-fs@4.1.11 </tspan>
<tspan x="10" y="1210">  ├─┬ gulp-sourcemaps@1.6.0 </tspan>
<tspan x="10" y="1226">  │ └── convert-source-map@1.5.0 </tspan>
<tspan x="10" y="1242">  ├── is-valid-glob@0.3.0 </tspan>
<tspan x="10" y="1258">  ├── lazystream@1.0.0 </tspan>
<tspan x="10" y="1274">  ├── lodash.isequal@4.5.0 </tspan>
<tspan x="10" y="1290">  ├── merge-stream@1.0.1 </tspan>
<tspan x="10" y="1306">  ├─┬ mkdirp@0.5.1 </tspan>
<tspan x="10" y="1322">  │ └── minimist@0.0.8 </tspan>
<tspan x="10" y="1338">  ├── object-assign@4.1.1 </tspan>
<tspan x="10" y="1354">  ├─┬ readable-stream@2.2.9 </tspan>
<tspan x="10" y="1370">  │ ├── buffer-shims@1.0.0 </tspan>
<tspan x="10" y="1386">  │ ├── core-util-is@1.0.2 </tspan>
<tspan x="10" y="1402">  │ ├── isarray@1.0.0 </tspan>
<tspan x="10" y="1418">  │ ├── process-nextick-args@1.0.7 </tspan>
<tspan x="10" y="1434">  │ ├── string_decoder@1.0.0 </tspan>
<tspan x="10" y="1450">  │ └── util-deprecate@1.0.2 </tspan>
<tspan x="10" y="1466">  ├─┬ strip-bom@2.0.0 </tspan>
<tspan x="10" y="1482">  │ └── is-utf8@0.2.1 </tspan>
<tspan x="10" y="1498">  ├─┬ strip-bom-stream@1.0.0 </tspan>
<tspan x="10" y="1514">  │ └── first-chunk-stream@1.0.0 </tspan>
<tspan x="10" y="1530">  ├─┬ through2@2.0.3 </tspan>
<tspan x="10" y="1546">  │ └── xtend@4.0.1 </tspan>
<tspan x="10" y="1562">  ├── through2-filter@2.0.0 </tspan>
<tspan x="10" y="1578">  ├── vali-date@1.0.0 </tspan>
<tspan x="10" y="1594">  └─┬ vinyl@1.2.0 </tspan>
<tspan x="10" y="1610">    ├── clone@1.0.2 </tspan>
<tspan x="10" y="1626">    ├── clone-stats@0.0.1 </tspan>
<tspan x="10" y="1642">    └── replace-ext@0.0.1</tspan>
</text>
</svg>
